<?xml version="1.0" encoding="UTF-8" standalone="no"?>
<!-- Created with Inkscape (http://www.inkscape.org/) -->

<svg
   width="25.489117mm"
   height="36.01004mm"
   viewBox="0 0 25.489117 36.01004"
   version="1.1"
   id="svg1"
   xml:space="preserve"
   xmlns="http://www.w3.org/2000/svg"
   xmlns:svg="http://www.w3.org/2000/svg"><defs
     id="defs1" /><g
     id="layer1"
     transform="translate(-6.2627571,-0.60430361)"><g
       id="g4"
       transform="matrix(0.26707743,0,0,0.26707743,-22.017331,-20.97615)"><g
         id="g8"
         style="fill:#2b0000;fill-opacity:1"
         transform="translate(297.08552,11.396174)"><path
           style="opacity:1;fill:#2b0000;fill-opacity:1;stroke:none;stroke-width:1.5;paint-order:stroke fill markers"
           d="m -139.63461,69.628146 0.12942,4.659133 1.16478,4.01203 0.51768,1.035362 -0.12942,3.106089 0.12942,2.329567 0.12942,0.905941 0.77653,1.423625 0.12941,3.62377 1.94131,1.553044 2.32957,4.141451 0.90594,5.176812 0.25884,2.84725 v 8.93 l 1.68246,-1.2942 -0.51768,-2.45899 1.03536,-3.88261 1.29421,2.45899 v 3.23551 l -0.38826,0.90594 0.6471,1.2942 v 8.41233 h 2.45898 l 18.24827,9.83594 -0.12942,-2.71782 2.45899,-3.62377 -0.12942,-3.10609 1.94131,-0.12942 v 2.71783 l 1.68246,0.38826 -0.25884,8.93 5.565072,2.32957 -1.423625,1.03536 -0.129421,64.83959 -42.579286,0.51768 z"
           id="path8" /><path
           style="fill:#2b0000;fill-opacity:1;stroke:none;stroke-width:1.5;paint-order:stroke fill markers"
           d="m -139.64803,69.70153 -0.12942,4.659133 -1.16478,4.01203 -0.51768,1.035362 0.12942,3.106089 -0.12942,2.329567 -0.12942,0.905941 -0.77653,1.423625 -0.12941,3.62377 -1.94131,1.553044 -2.32957,4.141453 -0.90594,5.176816 -0.25884,2.84725 v 8.93 l -1.68246,-1.2942 0.51768,-2.45899 -1.03536,-3.88261 -1.29421,2.45899 v 3.23551 l 0.38826,0.90594 -0.6471,1.2942 v 8.41233 h -2.45898 l -18.24827,9.83594 0.12942,-2.71782 -2.45899,-3.62377 0.12942,-3.10609 -1.94131,-0.12942 v 2.71783 l -1.68246,0.38826 0.25884,8.93 -5.56507,2.32957 1.42362,1.03536 0.12942,64.83959 42.57929,0.51768 z"
           id="path8-9" /></g><g
         id="g7"
         transform="translate(85.968018,24.199631)"
         style="stroke:#ffffff;stroke-opacity:1"><g
           id="g1"
           transform="matrix(0.82599824,0,0,0.82599824,-40.98685,14.961337)"
           style="stroke:#ffffff;stroke-opacity:1"><path
             style="fill:none;stroke:#ffffff;stroke-width:1.5;stroke-dasharray:none;stroke-opacity:1;paint-order:stroke fill markers"
             d="m 76.231049,213.084 v -78.47205 l -1.342488,-1.84134 6.566929,-2.9285 v -10.47159 l 2.307299,-0.0887 0.08874,-4.08214 h 2.041073 l 0.08874,4.17088 2.48191,4.2988 v 3.06682 l 22.018388,-11.29687 h 3.11361 v -11.23124 l 1.00079,-1.22321 -0.82057,-1.42126 v -3.582765 l 1.04297,-1.112 v -1.55681 h 0.77841 v 1.66801 l 0.7784,0.7784 v 3.780825 l -0.39865,1.48777 1.34585,1.34584 1.00835,0.58217 0.19145,-0.0147 V 94.277565 l -0.54087,-0.38634 v -3.86332 l 0.61814,-0.2318 c 0,0 0.92719,-9.96738 6.18132,-12.74898 l -0.11865,-5.18879 1.35722,-0.90481 c 0,0 -1.24412,-1.52688 0.16966,-2.771 v -6.10749 l 1.75984,-4.3298 v -7.33197"
             id="path1" /><path
             style="fill:none;stroke:#ffffff;stroke-width:1.5;stroke-dasharray:none;stroke-opacity:1;paint-order:stroke fill markers"
             id="path3-2"
             d="m 132.87515,113.5528 a 4.8969178,4.8969178 0 0 1 -4.89601,4.89692 4.8969178,4.8969178 0 0 1 -4.89782,-4.8951 4.8969178,4.8969178 0 0 1 4.89419,-4.89873 4.8969178,4.8969178 0 0 1 4.89964,4.89328" /><path
             style="fill:none;stroke:#ffffff;stroke-width:1.5;stroke-dasharray:none;stroke-opacity:1;paint-order:stroke fill markers"
             d="M 76.066785,133.46209 H 106.54249 L 128.35091,120.871"
             id="path4" /><path
             style="fill:none;stroke:#ffffff;stroke-width:1.97073;stroke-opacity:1;paint-order:stroke fill markers"
             d="M 76.177674,212.66065 H 130.1913"
             id="path5" /><path
             style="fill:none;stroke:#ffffff;stroke-width:0.5;stroke-dasharray:none;stroke-opacity:1;paint-order:stroke fill markers"
             d="m 82.240887,134.38097 v 3.86274 h -2.997491 v 2.34856 h 3.152003 v 3.43011 h -2.657573 v 2.9666 h 2.688473 v 2.62667 h -2.750277 v 2.62666 h 2.410357 v 3.15201 H 79.79963 v 2.22494 h 2.564865 v 3.1829 h -2.533962 v 2.41036 h 2.503062 v 3.77004 h -2.31765 v 2.31765 h 2.101334 v 3.46102 h -2.472158 v 2.25585 h 2.472158 v 3.27561 h -2.441257 v 2.75027 h 2.410357 v 2.90479 h -2.441258 v 2.50306 h 2.441258 v 3.0593 h -2.31765 v 2.34855 h 2.276652 v 2.81458 H 79.52776 v 3.09125 h 2.198936 v 2.90005 h -2.07146 v 2.67696 h 2.453883 v 3.02752 h -2.358278 v 2.80444 h 2.358278 v 3.12312"
             id="path9" /><path
             style="fill:none;stroke:#ffffff;stroke-width:1.5;stroke-dasharray:none;stroke-opacity:1;paint-order:stroke fill markers"
             d="M 107.91988,211.71228 V 132.51851"
             id="path10" /><path
             style="fill:none;stroke:#ffffff;stroke-width:0.5;stroke-dasharray:none;stroke-opacity:1;paint-order:stroke fill markers"
             d="m 107.9185,133.51267 h 20.26731"
             id="path11" /><path
             style="fill:none;stroke:#ffffff;stroke-width:0.499999;stroke-dasharray:none;stroke-opacity:1;paint-order:stroke fill markers"
             d="m 112.96764,133.70453 v 4.2519 h -2.1646 v 2.70575 l 1.85537,0.0773 v 3.22114 h -1.85537 v 2.52536 h 2.03576 v 2.78306 h -2.19038 v 2.67998 h 2.24191 v 2.98922 h -2.34498 v 2.4996 h 2.44806 v 2.70575 h -2.11306 v 3.14383 h 2.21614 v 2.75729 h -2.26768 v 2.67998 h 2.19037 v 2.93767 h -2.19037 v 2.65422 h 2.31922 v 3.27267 h -2.06153 v 3.32421 h 2.06153 v 2.44806 h -2.4223 v 2.67998 h 2.21614 v 2.49961 h -2.24191 v 3.19536 h 2.44807 v 3.1696 h -2.03576 v 2.34498 h 2.24191 v 2.98921 h -2.73152 v 2.88614 h 2.67998 v 2.73152 h -2.73152 v 2.98921 h 2.86036 v 3.09229"
             id="path12" /><path
             style="fill:none;stroke:#ffffff;stroke-width:0.499999;stroke-dasharray:none;stroke-opacity:1;paint-order:stroke fill markers"
             d="m 127.86822,111.06774 0.0713,3.06581 2.03199,-2.56672"
             id="path13" /><path
             style="fill:none;stroke:#ffffff;stroke-width:0.499999;stroke-dasharray:none;stroke-opacity:1;paint-order:stroke fill markers"
             id="path14"
             d="m 130.8627,113.53608 a 2.7271388,2.7271388 0 0 1 -2.72664,2.72714 2.7271388,2.7271388 0 0 1 -2.72764,-2.72613 2.7271388,2.7271388 0 0 1 2.72562,-2.72815 2.7271388,2.7271388 0 0 1 2.72866,2.72512" /><path
             style="fill:none;stroke:#ffffff;stroke-width:1.5;stroke-dasharray:none;stroke-opacity:1;paint-order:stroke fill markers"
             d="m 179.78014,212.99694 v -78.47205 l 1.34249,-1.84134 -6.56693,-2.9285 v -10.47159 l -2.30729,-0.0887 -0.0887,-4.08214 h -2.04108 l -0.0887,4.17088 -2.48191,4.2988 v 3.06682 l -22.01838,-11.29691 h -3.11361 v -11.23124 l -1.00079,-1.22321 0.82057,-1.42126 v -3.582765 l -1.04297,-1.112 v -1.55681 h -0.77841 v 1.66801 l -0.7784,0.7784 v 3.780825 l 0.39865,1.48776 -1.34585,1.34585 -1.00835,0.58217 -0.19145,-0.0147 V 94.190505 l 0.54087,-0.38634 v -3.86332 l -0.61814,-0.2318 c 0,0 -0.92719,-9.96738 -6.18132,-12.74898 l 0.11865,-5.18879 -1.35722,-0.90481 c 0,0 1.24412,-1.52688 -0.16966,-2.771 v -6.10749"
             id="path1-0" /><path
             style="fill:none;stroke:#ffffff;stroke-width:1.5;stroke-dasharray:none;stroke-opacity:1;paint-order:stroke fill markers"
             d="m 179.94441,133.37503 h -30.4757 l -21.80842,-12.59109"
             id="path4-6" /><path
             style="fill:none;stroke:#ffffff;stroke-width:1.97073;stroke-opacity:1;paint-order:stroke fill markers"
             d="M 179.83352,212.57359 H 125.8199"
             id="path5-8" /><path
             style="fill:none;stroke:#ffffff;stroke-width:0.5;stroke-dasharray:none;stroke-opacity:1;paint-order:stroke fill markers"
             d="m 173.77031,134.29391 v 3.86274 h 2.99749 v 2.34856 h -3.152 v 3.43011 h 2.65757 v 2.9666 h -2.68847 v 2.62667 h 2.75027 v 2.62666 h -2.41036 v 3.15201 h 2.28675 v 2.22494 h -2.56486 v 3.1829 h 2.53396 v 2.41036 h -2.50306 v 3.77004 h 2.31765 v 2.31765 h -2.10133 v 3.46102 h 2.47215 v 2.25585 h -2.47215 v 3.27561 h 2.44125 v 2.75027 h -2.41036 v 2.90479 h 2.44126 v 2.50306 h -2.44126 v 3.0593 h 2.31765 v 2.34855 h -2.27665 v 2.81458 h 2.51762 v 3.09125 h -2.19893 v 2.90005 h 2.07146 v 2.67696 h -2.45389 v 3.02752 h 2.35828 v 2.80444 h -2.35828 v 3.12312"
             id="path9-3" /><path
             style="fill:none;stroke:#ffffff;stroke-width:1.5;stroke-dasharray:none;stroke-opacity:1;paint-order:stroke fill markers"
             d="M 148.09132,211.62522 V 132.43145"
             id="path10-8" /><path
             style="fill:none;stroke:#ffffff;stroke-width:0.5;stroke-dasharray:none;stroke-opacity:1;paint-order:stroke fill markers"
             d="M 148.0927,133.42561 H 127.82539"
             id="path11-6" /><path
             style="fill:none;stroke:#ffffff;stroke-width:0.499999;stroke-dasharray:none;stroke-opacity:1;paint-order:stroke fill markers"
             d="m 143.04356,133.61747 v 4.2519 h 2.1646 v 2.70575 l -1.85537,0.0773 v 3.22114 h 1.85537 v 2.52536 h -2.03576 v 2.78306 h 2.19038 v 2.67998 h -2.24191 v 2.98922 h 2.34498 v 2.4996 h -2.44806 v 2.70575 h 2.11306 v 3.14383 h -2.21614 v 2.75729 h 2.26768 v 2.67998 h -2.19037 v 2.93767 h 2.19037 v 2.65422 h -2.31922 v 3.27267 h 2.06153 v 3.32421 h -2.06153 v 2.44806 h 2.4223 v 2.67998 h -2.21614 v 2.49961 h 2.24191 v 3.19536 h -2.44807 v 3.1696 h 2.03576 v 2.34498 h -2.24191 v 2.98921 h 2.73152 v 2.88614 h -2.67998 v 2.73152 h 2.73152 v 2.98921 h -2.86036 v 3.09229"
             id="path12-1" /><path
             style="fill:none;stroke:#ffffff;stroke-width:1.64873;stroke-dasharray:none;stroke-opacity:1;paint-order:stroke fill markers"
             d="m 129.693,62.753825 -1.52773,-5.71296"
             id="path15" /></g></g></g></g></svg>
